<svg width="24" height="24" viewBox="0 0 48 48" fill="none"  xmlns="http://www.w3.org/2000/svg">
<path d="M 15.853516 10 C 13.858878 10 12.013469 11.083367 11.044922 12.828125 L 7.5390625 19.138672 L 3.9238281 19.742188 C 2.2471936 20.022206 1 21.492455 1 23.193359 L 1 28.5 C 1 31.422098 3.3245786 33.831082 6.2109375 33.984375 C 6.8651939 36.290624 8.9946598 38 11.5 38 C 13.999736 38 16.125763 36.298413 16.785156 34 L 30.214844 34 C 30.874237 36.298413 33.000264 38 35.5 38 C 37.999736 38 40.125763 36.298413 40.785156 34 L 41.5 34 C 44.519774 34 47 31.519774 47 28.5 L 47 24.960938 C 47 22.825267 45.476864 20.965996 43.382812 20.546875 L 43.380859 20.546875 L 36.404297 19.150391 L 31.935547 12.449219 C 30.916301 10.92028 29.196001 10 27.359375 10 L 15.853516 10 z M 15.853516 13 L 27.359375 13 C 28.196749 13 28.974746 13.41622 29.439453 14.113281 L 32.697266 19 L 11.048828 19 L 13.667969 14.285156 C 14.109422 13.489914 14.942154 13 15.853516 13 z M 8.6289062 22 L 35.351562 22 L 42.792969 23.488281 A 1.50015 1.50015 0 0 0 42.794922 23.488281 C 43.503877 23.629879 44 24.237231 44 24.960938 L 44 28.5 C 44 29.898226 42.898226 31 41.5 31 L 40.785156 31 C 40.125763 28.701587 37.999736 27 35.5 27 C 33.000264 27 30.874237 28.701587 30.214844 31 L 16.785156 31 C 16.125763 28.701587 13.999736 27 11.5 27 C 9.0101547 27 6.8910167 28.688073 6.2226562 30.972656 C 4.9605577 30.836473 4 29.803146 4 28.5 L 4 23.193359 C 4 22.938263 4.1666032 22.743153 4.4179688 22.701172 L 8.6289062 22 z M 11.5 30 C 12.896406 30 14 31.103594 14 32.5 C 14 33.896406 12.896406 35 11.5 35 C 10.151253 35 9.0855196 33.967201 9.0136719 32.638672 A 1.50015 1.50015 0 0 0 9.0136719 32.361328 C 9.0855196 31.032799 10.151253 30 11.5 30 z M 35.5 30 C 36.848747 30 37.91448 31.032799 37.986328 32.361328 A 1.50015 1.50015 0 0 0 37.986328 32.638672 C 37.91448 33.967201 36.848747 35 35.5 35 C 34.103594 35 33 33.896406 33 32.5 C 33 31.103594 34.103594 30 35.5 30 z" fill="currentColor" fill-rule="evenodd" clip-rule="evenodd"></path>
</svg>