<svg width="24" height="24" viewBox="0 0 48 48" fill="none" xmlns="http://www.w3.org/2000/svg">
<path d="M 12.470703 4.9863281 A 1.50015 1.50015 0 0 0 11.439453 5.4394531 L 6.4394531 10.439453 A 1.50015 1.50015 0 1 0 8.5605469 12.560547 L 13.560547 7.5605469 A 1.50015 1.50015 0 0 0 12.470703 4.9863281 z M 21.15625 5.9980469 C 19.698137 5.9980469 18.298535 6.5784179 17.267578 7.609375 L 8.6835938 16.195312 C 7.5949064 17.285373 7.0107885 18.783725 7.078125 20.324219 L 7.8417969 37.732422 C 7.9659083 40.661306 10.405835 43 13.337891 43 L 34.5 43 C 37.519774 43 40 40.519774 40 37.5 L 40 11.5 C 40 8.4802259 37.519407 5.9994137 34.5 5.9980469 L 21.15625 5.9980469 z M 21.15625 8.9980469 L 34.5 8.9980469 C 35.898593 8.99868 37 10.101774 37 11.5 L 37 37.5 C 37 38.898226 35.898226 40 34.5 40 L 13.337891 40 C 11.982603 40 10.89479 38.95771 10.837891 37.603516 A 1.50015 1.50015 0 0 0 10.837891 37.601562 L 10.076172 20.193359 C 10.045542 19.492733 10.308582 18.814175 10.804688 18.316406 L 10.806641 18.314453 L 19.390625 9.7324219 C 19.859668 9.263379 20.494363 8.9980469 21.15625 8.9980469 z M 23.5 12 C 22.672 12 22 12.672 22 13.5 C 22 14.328 22.672 15 23.5 15 L 32.5 15 C 33.328 15 34 14.328 34 13.5 C 34 12.672 33.328 12 32.5 12 L 23.5 12 z M 24.056641 20.001953 A 1.50015 1.50015 0 0 0 22.884766 20.496094 C 22.884766 20.496094 21.697413 21.813508 20.507812 23.572266 C 19.318213 25.331023 18 27.47306 18 29.806641 C 18 33.176033 20.669125 36 24 36 C 27.330473 36 30 33.176733 30 29.806641 C 30 27.47306 28.681788 25.331023 27.492188 23.572266 C 26.302587 21.813508 25.115234 20.496094 25.115234 20.496094 A 1.50015 1.50015 0 0 0 24.056641 20.001953 z M 24 23.949219 C 24.390279 24.434462 24.504618 24.509962 25.007812 25.253906 C 26.068212 26.821649 27 28.834221 27 29.806641 C 27 31.622548 25.639527 33 24 33 C 22.360875 33 21 31.621249 21 29.806641 C 21 28.834221 21.931788 26.821649 22.992188 25.253906 C 23.495382 24.509962 23.609721 24.434462 24 23.949219 z" fill="currentColor" fill-rule="evenodd" clip-rule="evenodd"></path>
</svg>